REM DIRINDEX 1\5,1\2\6,1\2\7,1\3\8,1\3\9,1\4\10,1\4\11,1\4\12
REM DIRNAME cjc026,folder01,folder02,folder03,folder04,folder05,folder06,folder07,folder08,folder09,folder10,folder11
TITLE ""
FILE "EJE_DB3000_5th_6C_49.mp3" MP3
  TRACK 01 AUDIO
    TITLE "0:"
    INDEX 01 00:00:00
  TRACK 02 AUDIO
    TITLE "10:cjc026_12054"
    INDEX 01 00:00:08
  TRACK 03 AUDIO
    TITLE "0:"
    INDEX 01 00:02:06
  TRACK 04 AUDIO
    TITLE "11:cjc026_12055"
    INDEX 01 00:02:41
  TRACK 05 AUDIO
    TITLE "0:"
    INDEX 01 00:05:00
  TRACK 06 AUDIO
    TITLE "12:cjc026_12056"
    INDEX 01 00:05:35
  TRACK 07 AUDIO
    TITLE "0:"
    INDEX 01 00:07:33
  TRACK 08 AUDIO
    TITLE "10:cjc026_12057"
    INDEX 01 00:07:69
  TRACK 09 AUDIO
    TITLE "0:"
    INDEX 01 00:09:43
  TRACK 10 AUDIO
    TITLE "11:cjc026_12058"
    INDEX 01 00:10:06
  TRACK 11 AUDIO
    TITLE "0:"
    INDEX 01 00:12:20
  TRACK 12 AUDIO
    TITLE "12:cjc026_12059"
    INDEX 01 00:12:55
  TRACK 13 AUDIO
    TITLE "0:"
    INDEX 01 00:14:30
  TRACK 14 AUDIO
    TITLE "10:cjc026_12060"
    INDEX 01 00:14:67
  TRACK 15 AUDIO
    TITLE "0:"
    INDEX 01 00:16:41
  TRACK 16 AUDIO
    TITLE "11:cjc026_12061"
    INDEX 01 00:17:04
  TRACK 17 AUDIO
    TITLE "0:"
    INDEX 01 00:19:19
  TRACK 18 AUDIO
    TITLE "12:cjc026_12062"
    INDEX 01 00:19:54
  TRACK 19 AUDIO
    TITLE "0:"
    INDEX 01 00:21:28
  TRACK 20 AUDIO
    TITLE "10:cjc026_12063"
    INDEX 01 00:21:63
  TRACK 21 AUDIO
    TITLE "0:"
    INDEX 01 00:23:19
  TRACK 22 AUDIO
    TITLE "11:cjc026_12064"
    INDEX 01 00:23:57
  TRACK 23 AUDIO
    TITLE "0:"
    INDEX 01 00:25:20
  TRACK 24 AUDIO
    TITLE "12:cjc026_12065"
    INDEX 01 00:25:55
  TRACK 25 AUDIO
    TITLE "0:"
    INDEX 01 00:27:10
  TRACK 26 AUDIO
    TITLE "10:cjc026_12066"
    INDEX 01 00:27:48
  TRACK 27 AUDIO
    TITLE "0:"
    INDEX 01 00:28:73
  TRACK 28 AUDIO
    TITLE "11:cjc026_12067"
    INDEX 01 00:29:47
  TRACK 29 AUDIO
    TITLE "0:"
    INDEX 01 00:30:58
  TRACK 30 AUDIO
    TITLE "12:cjc026_12068"
    INDEX 01 00:31:24
  TRACK 31 AUDIO
    TITLE "0:"
    INDEX 01 00:32:57
  TRACK 32 AUDIO
    TITLE "10:cjc026_12069"
    INDEX 01 00:33:22
  TRACK 33 AUDIO
    TITLE "0:"
    INDEX 01 00:34:52
  TRACK 34 AUDIO
    TITLE "11:cjc026_12070"
    INDEX 01 00:35:15
  TRACK 35 AUDIO
    TITLE "0:"
    INDEX 01 00:36:45
  TRACK 36 AUDIO
    TITLE "12:cjc026_12071"
    INDEX 01 00:37:06
  TRACK 37 AUDIO
    TITLE "0:"
    INDEX 01 00:38:36
  TRACK 38 AUDIO
    TITLE "10:cjc026_12072"
    INDEX 01 00:38:74
  TRACK 39 AUDIO
    TITLE "0:"
    INDEX 01 00:40:18
  TRACK 40 AUDIO
    TITLE "11:cjc026_12073"
    INDEX 01 00:40:69
  TRACK 41 AUDIO
    TITLE "0:"
    INDEX 01 00:42:25
  TRACK 42 AUDIO
    TITLE "12:cjc026_12074"
    INDEX 01 00:42:60
  TRACK 43 AUDIO
    TITLE "0:"
    INDEX 01 00:44:07
  TRACK 44 AUDIO
    TITLE "10:cjc026_12075"
    INDEX 01 00:44:53
  TRACK 45 AUDIO
    TITLE "0:"
    INDEX 01 00:46:11
  TRACK 46 AUDIO
    TITLE "11:cjc026_12076"
    INDEX 01 00:46:46
  TRACK 47 AUDIO
    TITLE "0:"
    INDEX 01 00:48:31
  TRACK 48 AUDIO
    TITLE "12:cjc026_12077"
    INDEX 01 00:48:66
  TRACK 49 AUDIO
    TITLE "0:"
    INDEX 01 00:50:21
  TRACK 50 AUDIO
    TITLE "10:cjc026_12078"
    INDEX 01 00:50:57
  TRACK 51 AUDIO
    TITLE "0:"
    INDEX 01 00:52:39
  TRACK 52 AUDIO
    TITLE "11:cjc026_12079"
    INDEX 01 00:53:04
  TRACK 53 AUDIO
    TITLE "0:"
    INDEX 01 00:54:29
  TRACK 54 AUDIO
    TITLE "12:cjc026_12080"
    INDEX 01 00:54:64
  TRACK 55 AUDIO
    TITLE "0:"
    INDEX 01 00:56:49
  TRACK 56 AUDIO
    TITLE "10:cjc026_12081"
    INDEX 01 00:57:09
  TRACK 57 AUDIO
    TITLE "0:"
    INDEX 01 00:58:61
  TRACK 58 AUDIO
    TITLE "11:cjc026_12082"
    INDEX 01 00:59:21
  TRACK 59 AUDIO
    TITLE "0:"
    INDEX 01 01:01:01
  TRACK 60 AUDIO
    TITLE "12:cjc026_12083"
    INDEX 01 01:01:36
  TRACK 61 AUDIO
    TITLE "0:"
    INDEX 01 01:03:10
  TRACK 62 AUDIO
    TITLE "10:cjc026_12084"
    INDEX 01 01:03:45
  TRACK 63 AUDIO
    TITLE "0:"
    INDEX 01 01:05:28
  TRACK 64 AUDIO
    TITLE "11:cjc026_12085"
    INDEX 01 01:05:63
  TRACK 65 AUDIO
    TITLE "0:"
    INDEX 01 01:07:29
  TRACK 66 AUDIO
    TITLE "12:cjc026_12086"
    INDEX 01 01:07:67
  TRACK 67 AUDIO
    TITLE "0:"
    INDEX 01 01:09:46
  TRACK 68 AUDIO
    TITLE "10:cjc026_12087"
    INDEX 01 01:10:06
  TRACK 69 AUDIO
    TITLE "0:"
    INDEX 01 01:11:37
  TRACK 70 AUDIO
    TITLE "11:cjc026_12088"
    INDEX 01 01:12:00
  TRACK 71 AUDIO
    TITLE "0:"
    INDEX 01 01:13:57
  TRACK 72 AUDIO
    TITLE "12:cjc026_12089"
    INDEX 01 01:14:17
  TRACK 73 AUDIO
    TITLE "0:"
    INDEX 01 01:15:47
  TRACK 74 AUDIO
    TITLE "10:cjc026_12090"
    INDEX 01 01:16:07
  TRACK 75 AUDIO
    TITLE "0:"
    INDEX 01 01:17:43
  TRACK 76 AUDIO
    TITLE "11:cjc026_12091"
    INDEX 01 01:18:06
  TRACK 77 AUDIO
    TITLE "0:"
    INDEX 01 01:19:63
  TRACK 78 AUDIO
    TITLE "12:cjc026_12092"
    INDEX 01 01:20:26
  TRACK 79 AUDIO
    TITLE "0:"
    INDEX 01 01:21:62
